<svg viewBox="0 0 26 26" fill="none" xmlns="http://www.w3.org/2000/svg"><circle cx="13" cy="13" r="13" fill="#EB5757"/><path fill-rule="evenodd" clip-rule="evenodd" d="M12.014 9.9l.763-.763a.72.72 0 000-1.02l-2.799-2.8a1.08 1.08 0 00-1.53.002L6.92 6.845c-.98.981-1.217 2.758-.521 3.964 0 0 .834 1.948 3.85 4.964 3.016 3.016 4.929 3.82 4.929 3.82 1.193.715 2.979.456 3.962-.527l1.527-1.527a1.08 1.08 0 00.002-1.53l-2.8-2.8a.72.72 0 00-1.02.001l-.763.763a1.08 1.08 0 01-1.53-.003l-2.54-2.541a1.082 1.082 0 01-.003-1.53zm-4.367.189c-.317-.662-.229-1.704.292-2.225l1.275-1.275 2.037 2.037-.255.255a2.522 2.522 0 00.002 3.566l2.541 2.541a2.52 2.52 0 003.567.003l.255-.255 2.036 2.037-1.274 1.274c-.53.53-1.602.626-2.205.31 0 0-.93-.51-1.266-.736-.992-.671-2.128-1.611-3.383-2.867-1.256-1.255-2.202-2.398-2.883-3.402-.23-.34-.739-1.263-.739-1.263z" fill="#fff"/></svg>