<svg viewBox="0 0 26 26" fill="none" xmlns="http://www.w3.org/2000/svg"><circle cx="13" cy="13" r="13" fill="#EB5757"/><path fill-rule="evenodd" clip-rule="evenodd" d="M16.333 12.833c0 1.162-.822 2.16-1.999 2.598.056.427.14 1.037.193 1.272.15.663.347 1.097.454 1.25A5.335 5.335 0 0013 7.667a5.333 5.333 0 00-1.961 10.294c.027-.034.069-.092.123-.19.137-.25.258-.623.355-1.082l.028-.146a2.032 2.032 0 01-.69.114 2.28 2.28 0 01-1.623-.674 2.484 2.484 0 01-.503-.672.667.667 0 011.2-.582c.027.057.107.177.232.298.196.19.42.297.694.297.167 0 .275-.035.354-.1-.927-.504-1.542-1.386-1.542-2.39 0-.382.088-.746.249-1.078l-.233-1.588c-.054-.366.19-.572.543-.463l1.572.485c.373-.123.778-.19 1.202-.19.422 0 .825.067 1.197.188l1.567-.483c.353-.109.596.097.543.463l-.23 1.572c.165.337.256.706.256 1.093zm-3.512 4.132c-.11.52-.244.97-.418 1.335a5.4 5.4 0 001.241-.005c-.168-.356-.303-.793-.417-1.297-.057-.25-.143-.861-.204-1.331h-.017c-.05.428-.127 1.023-.185 1.298zM13 19.667a6.667 6.667 0 110-13.334 6.667 6.667 0 010 13.334zm-2-6.334a1 1 0 00.999 1h2.002a1 1 0 000-2h-2.002a1 1 0 00-.999 1z" fill="#fff"/></svg>