<svg viewBox="0 0 26 26" fill="none" xmlns="http://www.w3.org/2000/svg"><circle cx="13" cy="13" r="13" fill="#EB5757"/><path fill-rule="evenodd" clip-rule="evenodd" d="M14.333 13.943l-.862.862a.667.667 0 01-.942 0l-.862-.862-3.726 3.726 10.116-.002-3.724-3.724zM19 9.276L15.276 13 19 16.724V9.276zM10.724 13L7 9.276v7.448L10.724 13zm2.276.412l5.062-5.08-10.122.001 5.06 5.08zM7 7h12c.736 0 1.333.595 1.333 1.33v9.34c0 .734-.597 1.33-1.334 1.33H7.001a1.332 1.332 0 01-1.334-1.33V8.33C5.667 7.595 6.264 7 7 7z" fill="#fff"/></svg>